<svg xmlns="http://www.w3.org/2000/svg" version="1.1" xmlns:xlink="http://www.w3.org/1999/xlink"
    xmlns:svgjs="http://svgjs.com/svgjs" width="512" height="512" x="0" y="0" viewBox="0 0 60 60"
    style="enable-background:new 0 0 512 512" xml:space="preserve" class="">
    <g>
        <path fill="#d78415"
            d="M50.74 22.71H39.09V31c0 3.73-3.04 6.77-6.77 6.77H27v3.3c0 2.35 1.91 4.26 4.26 4.26h12.82l4.49 4.49a.984.984 0 0 0 1.09.21c.37-.15.61-.52.61-.92v-3.78h.47c2.35 0 4.26-1.91 4.26-4.26v-14.1c0-2.35-1.91-4.26-4.26-4.26zm-2.93 8.43h-2.7v6.76c0 .55-.45 1-1 1s-1-.45-1-1v-6.76h-2.7c-.56 0-1-.45-1-1 0-.56.44-1 1-1h7.4c.56 0 1 .44 1 1 0 .55-.44 1-1 1z"
            data-original="#40444f"></path>
        <g fill="#2b79c3">
            <path d="m20.53 17.02 2.21 1.66h-1.86z" fill="#2b79c3" data-original="#2b79c3" class=""></path>
            <path
                d="M32.32 9.89H9.77C7.14 9.89 5 12.05 5 14.68V31c0 2.63 2.14 4.77 4.77 4.77h.7v4.53c0 .41.24.77.61.93.13.05.26.07.39.07.26 0 .51-.1.7-.29l5.25-5.24h14.9c2.63 0 4.77-2.14 4.77-4.77V14.68c0-2.63-2.14-4.79-4.77-4.79zm-5.96 10.79v9.42c0 .55-.44 1-1 1-.55 0-1-.45-1-1v-9.42h-4.95v2.27c0 .55-.45 1-1 1-1.42 0-2.58 1.15-2.58 2.57s1.16 2.58 2.58 2.58 2.57-1.16 2.57-2.58c0-.55.45-1 1-1 .56 0 1 .45 1 1 0 2.53-2.05 4.58-4.57 4.58s-4.58-2.05-4.58-4.58c0-2.18 1.53-4 3.58-4.46v-1.38h-3.89c-.55 0-1-.45-1-1s.45-1 1-1h5.31l-.46-2.22c-.02-.07-.02-.14-.02-.21 0-.66.37-1.25.98-1.52.6-.28 1.29-.18 1.79.25l4.97 3.7h2.48c.55 0 1 .45 1 1s-.45 1-1 1z"
                fill="#2b79c3" data-original="#2b79c3" class=""></path>
        </g>
    </g>
</svg>